<?xml version="1.0" encoding="UTF-8" standalone="no"?>
<!-- Created with Inkscape (http://www.inkscape.org/) -->

<svg
   xmlns:dc="http://purl.org/dc/elements/1.1/"
   xmlns:cc="http://creativecommons.org/ns#"
   xmlns:rdf="http://www.w3.org/1999/02/22-rdf-syntax-ns#"
   xmlns:svg="http://www.w3.org/2000/svg"
   xmlns="http://www.w3.org/2000/svg"
   xmlns:sodipodi="http://sodipodi.sourceforge.net/DTD/sodipodi-0.dtd"
   xmlns:inkscape="http://www.inkscape.org/namespaces/inkscape"
   width="62.63097mm"
   height="70.194382mm"
   viewBox="0 0 62.630969 70.194379"
   version="1.1"
   id="svg8"
   inkscape:version="0.92.5 (2060ec1f9f, 2020-04-08)"
   sodipodi:docname="logo_owntech_small.svg">
  <defs
     id="defs2" />
  <sodipodi:namedview
     id="base"
     pagecolor="#ffffff"
     bordercolor="#666666"
     borderopacity="1.0"
     inkscape:pageopacity="0.0"
     inkscape:pageshadow="2"
     inkscape:zoom="0.35"
     inkscape:cx="-232.64596"
     inkscape:cy="-421.604"
     inkscape:document-units="mm"
     inkscape:current-layer="layer1"
     showgrid="false"
     inkscape:window-width="1920"
     inkscape:window-height="1016"
     inkscape:window-x="0"
     inkscape:window-y="27"
     inkscape:window-maximized="1" />
  <metadata
     id="metadata5">
    <rdf:RDF>
      <cc:Work
         rdf:about="">
        <dc:format>image/svg+xml</dc:format>
        <dc:type
           rdf:resource="http://purl.org/dc/dcmitype/StillImage" />
        <dc:title />
      </cc:Work>
    </rdf:RDF>
  </metadata>
  <g
     inkscape:label="Layer 1"
     inkscape:groupmode="layer"
     id="layer1"
     transform="translate(-29.048293,29.886629)">
    <path
       style="fill:#00694c;fill-opacity:1;stroke-width:0.31497678"
       d="M 55.216796,39.850233 C 42.952913,37.634497 33.537524,29.202137 29.928702,17.202397 29.157998,14.639721 29.073698,13.868737 29.050491,9.1704939 29.03004,5.030473 29.147,3.49288 29.625493,1.6110539 c 2.133631,-8.3911477 7.422028,-15.5348319 14.660461,-19.8037019 1.76812,-1.042751 4.880791,-2.559651 5.252395,-2.559651 0.06459,0 0.117451,2.113656 0.117451,4.696997 v 4.697009 l -2.003854,1.4299243 c -3.164678,2.2582618 -5.995296,5.5393212 -7.621355,8.834119 -1.656115,3.3557141 -2.332967,6.2423837 -2.332967,9.949774 0,3.7426267 0.679366,6.5992817 2.39685,10.0784457 1.229958,2.491584 1.928526,3.43901 4.180378,5.66958 3.070009,3.041016 5.674897,4.686558 9.318154,5.886436 2.165929,0.713327 3.072764,0.831669 6.457025,0.842608 6.799093,0.02206 11.463267,-1.88118 16.187067,-6.604982 4.445472,-4.445479 6.556481,-9.485175 6.582473,-15.7146026 0.01709,-4.0953455 -0.464404,-6.2963237 -2.13605,-9.76428675 C 79.027982,-4.1858231 76.060856,-7.7241069 73.155757,-9.7281093 l -2.054726,-1.4174007 -0.01338,-4.807627 -0.01338,-4.807614 1.181168,0.492352 c 3.985093,1.661161 7.611632,4.226692 10.945441,7.743178 3.852441,4.0635158 6.174826,8.2618865 7.624788,13.7838505 1.020307,3.8857184 1.142941,10.1305195 0.275988,14.0539035 -2.047222,9.264585 -8.57941,17.691668 -16.720118,21.570375 -6.561406,3.126244 -12.874758,4.103744 -19.164678,2.967325 z M 55.640353,-9.2556493 V -29.886629 h 4.724651 4.72465 V -9.2556493 11.375323 h -4.72465 -4.724651 z"
       id="path826"
       inkscape:connector-curvature="0"
       inkscape:export-xdpi="96"
       inkscape:export-ydpi="96" />
  </g>
</svg>
